<svg xmlns="http://www.w3.org/2000/svg" viewBox="0 0 105.47 26.71"><defs><style>.cls-1{fill:#fff;}</style></defs><title>Asset 4</title><g id="Layer_2" data-name="Layer 2"><g id="Layer_1-2" data-name="Layer 1"><g id="logo"><path class="cls-1" d="M33.82,7.39H0V.14H33.82Zm0,9.66H0V9.8H33.82Zm0,9.66H0V19.47H33.82ZM21.74,5V2.55H2.42V5Zm0,9.66V12.22H2.42v2.42Zm0,9.66V21.88H2.42V24.3ZM30.2,1.95A1.81,1.81,0,1,0,32,3.76,1.81,1.81,0,0,0,30.2,1.95Zm0,9.66A1.81,1.81,0,1,0,32,13.43,1.81,1.81,0,0,0,30.2,11.61Zm0,9.66A1.81,1.81,0,1,0,32,23.09,1.81,1.81,0,0,0,30.2,21.28Z"/><path class="cls-1" d="M40.23,8.71a1.78,1.78,0,0,0,.54.64,2.34,2.34,0,0,0,.79.36,3.76,3.76,0,0,0,.94.12,4.93,4.93,0,0,0,.71-.05,2.46,2.46,0,0,0,.71-.21,1.54,1.54,0,0,0,.55-.43,1.08,1.08,0,0,0,.22-.7,1,1,0,0,0-.29-.74,2.3,2.3,0,0,0-.76-.47,7.58,7.58,0,0,0-1.07-.33l-1.21-.31a10.71,10.71,0,0,1-1.22-.38,4.2,4.2,0,0,1-1.07-.59,2.78,2.78,0,0,1-.76-.9A2.74,2.74,0,0,1,38,3.39a2.93,2.93,0,0,1,.37-1.5,3.34,3.34,0,0,1,1-1.06A4.2,4.2,0,0,1,40.7.2,5.74,5.74,0,0,1,42.2,0a7.13,7.13,0,0,1,1.69.2,4.22,4.22,0,0,1,1.44.64,3.22,3.22,0,0,1,1,1.12,3.44,3.44,0,0,1,.37,1.65H44.31a2,2,0,0,0-.21-.83,1.38,1.38,0,0,0-.48-.52A2,2,0,0,0,42.93,2a4.21,4.21,0,0,0-.84-.08,2.9,2.9,0,0,0-.6.06A1.6,1.6,0,0,0,41,2.2a1.37,1.37,0,0,0-.4.39,1.06,1.06,0,0,0-.16.6,1,1,0,0,0,.13.53,1.11,1.11,0,0,0,.49.38,6.25,6.25,0,0,0,1,.35l1.7.44q.31.06.87.23a4.18,4.18,0,0,1,1.11.53,3.35,3.35,0,0,1,.95,1,2.74,2.74,0,0,1,.4,1.54,3.42,3.42,0,0,1-.3,1.43,3.1,3.1,0,0,1-.89,1.14,4.26,4.26,0,0,1-1.46.74,6.91,6.91,0,0,1-2,.27,7.07,7.07,0,0,1-1.8-.23,4.5,4.5,0,0,1-1.54-.71A3.52,3.52,0,0,1,38,9.54a3.7,3.7,0,0,1-.38-1.79H40A2.05,2.05,0,0,0,40.23,8.71Z"/><path class="cls-1" d="M57.7,10.61a5.17,5.17,0,0,1-3.51,1.11,5.16,5.16,0,0,1-3.52-1.1,4.28,4.28,0,0,1-1.25-3.39v-7h2.46v7a5.08,5.08,0,0,0,.08.89,1.74,1.74,0,0,0,1,1.33,2.84,2.84,0,0,0,1.2.21A2.31,2.31,0,0,0,56,9.07a2.8,2.8,0,0,0,.5-1.84v-7H59v7A4.24,4.24,0,0,1,57.7,10.61Z"/><path class="cls-1" d="M68.07.27a3.6,3.6,0,0,1,1.36.24,3.12,3.12,0,0,1,1,.67,2.9,2.9,0,0,1,.66,1,3.15,3.15,0,0,1,.23,1.2,3.37,3.37,0,0,1-.42,1.71,2.61,2.61,0,0,1-1.36,1.1v0a1.9,1.9,0,0,1,.75.38,2.12,2.12,0,0,1,.49.61,2.86,2.86,0,0,1,.27.78,6.86,6.86,0,0,1,.12.85q0,.27,0,.63c0,.24,0,.49.05.74a4.92,4.92,0,0,0,.13.71,1.64,1.64,0,0,0,.26.57H69.22A4.34,4.34,0,0,1,69,10.2q0-.74-.14-1.41a2.23,2.23,0,0,0-.53-1.29A1.83,1.83,0,0,0,67,7.09H64.49v4.38H62V.27Zm-.88,5.07A1.86,1.86,0,0,0,68.46,5a1.56,1.56,0,0,0,.42-1.22,1.49,1.49,0,0,0-.42-1.18,1.89,1.89,0,0,0-1.27-.37h-2.7V5.33Z"/><path class="cls-1" d="M76.45,11.47,72.82.27h2.53l2.49,7.87h0L80.4.27h2.54l-3.72,11.2Z"/><path class="cls-1" d="M93.22.27V2.34H87.3v2.4h5.43V6.65H87.3V9.4h6v2.07h-8.5V.27Z"/><path class="cls-1" d="M94.74.27H97.5l2.62,4.42,2.6-4.42h2.74l-4.16,6.9v4.3H98.85V7.11Z"/><path class="cls-1" d="M43.4,15a4.67,4.67,0,0,1,1.79.31,3.35,3.35,0,0,1,1.2.81,3.11,3.11,0,0,1,.67,1.15,4.28,4.28,0,0,1,0,2.66A3.1,3.1,0,0,1,46.38,21a3.35,3.35,0,0,1-1.2.81,4.67,4.67,0,0,1-1.79.31H40.81v4H38.34V15Zm-.67,5.27a5.18,5.18,0,0,0,.82-.06,1.9,1.9,0,0,0,.69-.24,1.32,1.32,0,0,0,.48-.51,2.15,2.15,0,0,0,0-1.73,1.33,1.33,0,0,0-.48-.51,1.91,1.91,0,0,0-.69-.24,5.18,5.18,0,0,0-.82-.06H40.81v3.36Z"/><path class="cls-1" d="M49.64,18.29a5.6,5.6,0,0,1,1.08-1.87,5,5,0,0,1,1.73-1.25,6.13,6.13,0,0,1,4.64,0,5,5,0,0,1,1.73,1.25,5.6,5.6,0,0,1,1.08,1.87,7,7,0,0,1,.38,2.33,6.77,6.77,0,0,1-.38,2.28,5.45,5.45,0,0,1-1.08,1.84A5,5,0,0,1,57.09,26a6.23,6.23,0,0,1-4.64,0,5,5,0,0,1-1.73-1.23,5.45,5.45,0,0,1-1.08-1.84,6.76,6.76,0,0,1-.38-2.28A7,7,0,0,1,49.64,18.29ZM51.89,22a3.69,3.69,0,0,0,.53,1.2,2.69,2.69,0,0,0,.94.85,3.26,3.26,0,0,0,2.82,0,2.7,2.7,0,0,0,.94-.85,3.72,3.72,0,0,0,.53-1.2,5.71,5.71,0,0,0,.16-1.37,6.14,6.14,0,0,0-.16-1.43A3.79,3.79,0,0,0,57.12,18a2.67,2.67,0,0,0-.94-.86,3.26,3.26,0,0,0-2.82,0,2.66,2.66,0,0,0-.94.86,3.77,3.77,0,0,0-.53,1.23,6.12,6.12,0,0,0-.16,1.43A5.68,5.68,0,0,0,51.89,22Z"/><path class="cls-1" d="M68.93,15a3.6,3.6,0,0,1,1.36.24,3.12,3.12,0,0,1,1,.67,2.9,2.9,0,0,1,.66,1,3.15,3.15,0,0,1,.23,1.2,3.37,3.37,0,0,1-.42,1.71,2.61,2.61,0,0,1-1.36,1.1v0a1.9,1.9,0,0,1,.75.38,2.12,2.12,0,0,1,.49.61,2.86,2.86,0,0,1,.27.78,6.86,6.86,0,0,1,.12.85q0,.27,0,.63c0,.24,0,.49.05.74a4.92,4.92,0,0,0,.13.71,1.64,1.64,0,0,0,.26.57H70.08a4.34,4.34,0,0,1-.25-1.27q0-.74-.14-1.41a2.23,2.23,0,0,0-.53-1.29,1.83,1.83,0,0,0-1.33-.41H65.36v4.38H62.89V15ZM68.05,20a1.86,1.86,0,0,0,1.27-.38,1.56,1.56,0,0,0,.42-1.22,1.49,1.49,0,0,0-.42-1.18,1.89,1.89,0,0,0-1.27-.37h-2.7V20Z"/><path class="cls-1" d="M74,17V15h9.18V17H79.82v9.13H77.36V17Z"/><path class="cls-1" d="M89.54,15l4.19,11.2H91.18l-.85-2.49H86.14l-.88,2.49H82.78L87,15Zm.14,6.87-1.41-4.11h0l-1.46,4.11Z"/><path class="cls-1" d="M98.11,15V24.1h5.46v2.07H95.65V15Z"/></g></g></g></svg>