<?xml version="1.0" encoding="utf-8"?><svg width="104" height="49" viewBox="0 0 104 49" xmlns="http://www.w3.org/2000/svg" xmlns:xlink="http://www.w3.org/1999/xlink"><svg id="db-logo" viewBox="0 0 32 27.7" width="32" height="27.7" x="72"><style>.ast0{fill:#cd2c28}</style><path id="ab" class="ast0" d="M24.4 6.7c-1.2 0-2.4.3-3.4.8V0h-4.2v14.3c0 4.2 3.4 7.6 7.6 7.6 4.2 0 7.6-3.4 7.6-7.6 0-4.2-3.4-7.6-7.6-7.6m0 11c-1.9 0-3.4-1.5-3.4-3.4s1.5-3.4 3.4-3.4 3.4 1.5 3.4 3.4-1.5 3.4-3.4 3.4"/><path id="ad" class="ast0" d="M14.9 18.1c0-.1-.1-.2-.1-.3-.2-.8-.3-1.6-.3-2.4V5.7h-4.2V13c-.8-.3-1.7-.5-2.7-.5-4.2 0-7.6 3.4-7.6 7.6 0 4.2 3.4 7.6 7.6 7.6 2.6 0 4.9-1.3 6.2-3.3 1.3 1.4 2.9 2.5 4.7 3.3l2.1-3.7c-2.7-.9-4.9-3.2-5.7-5.9m-7.3 5.4c-1.9 0-3.4-1.5-3.4-3.4s1.5-3.4 3.4-3.4 3.4 1.5 3.4 3.4-1.5 3.4-3.4 3.4"/></svg><svg viewBox="0 0 35 25" width="35" height="25" id="ico-answers1" y="24"><defs><style>.bcls-1{fill:#5a738e}</style></defs><title>Artboard 2</title><g id="bLayer_2" data-name="Layer 2"><path class="bcls-1" d="M13.54 7.44h20.67v1H13.54zM13.54 20h20.67v1H13.54zM10.54 11.91H.79V2.16h9.75zm-8.75-1h7.75V3.16H1.79zM10.54 24.22H.79v-9.75h9.75zm-8.75-1h7.75v-7.75H1.79z"/><path class="bcls-1" d="M12.67 2.12l-6 6-.67.63a.43.43 0 0 1-.61 0l-.61-.61-1.57-1.62a.43.43 0 0 1 0-.61l.61-.61a.43.43 0 0 1 .61 0l1.31 1.32L11.45.91a.43.43 0 0 1 .61 0l.61.61a.43.43 0 0 1 0 .61z"/></g></svg><svg viewBox="0 0 36 24" width="36" height="24" id="ico-answers2"><defs><style>.ccls-1{fill:#5a738e}.ccls-2{fill:#fff}</style></defs><title>Artboard 4</title><g id="cLayer_2" data-name="Layer 2"><path class="ccls-1" d="M14.04 6.25h20.67v1H14.04zM14.04 17.66h20.67v1H14.04z"/><circle class="ccls-2" cx="6.17" cy="18.16" r="4.38"/><path class="ccls-1" d="M6.17 23A4.88 4.88 0 1 1 11 18.16 4.88 4.88 0 0 1 6.17 23zm0-8.75A3.88 3.88 0 1 0 10 18.16a3.88 3.88 0 0 0-3.83-3.88z"/><circle class="ccls-2" cx="6.17" cy="5.84" r="4.38"/><path class="ccls-1" d="M6.17 10.72A4.88 4.88 0 1 1 11 5.84a4.88 4.88 0 0 1-4.83 4.88zm0-8.72A3.88 3.88 0 1 0 10 5.84 3.88 3.88 0 0 0 6.17 2z"/><circle class="ccls-1" cx="6.17" cy="5.84" r="1.71"/></g></svg><svg viewBox="0 0 34 20" width="34" height="20" id="ico-answers3" x="35" y="24"><defs><style>.dcls-1{fill:#5a738e}</style></defs><title>Artboard 5</title><g id="dLayer_2" data-name="Layer 2"><path class="dcls-1" d="M.75 1h32.5v2H.75zM23.25 9h10v2h-10zM.75 9h18.58v2H.75zM8.48 17h24.77v2H8.48zM.75 17h3.77v2H.75z"/></g></svg><svg viewBox="0 0 36 16" width="36" height="16" id="ico-answers4" x="36"><defs><style>.ecls-1{fill:#5a738e}</style></defs><title>Artboard 6</title><g id="eLayer_2" data-name="Layer 2"><path class="ecls-1" d="M1.11 12.56h32.94v2H1.11z"/><path class="ecls-1" d="M1.11 9.16h1v4.91h-1zM17.11 9.16h1v4.91h-1zM33.11 9.16h1v4.91h-1zM1.68 2.18l-.9.49-.16-.54 1.14-.61h.6v5.2h-.68zM16.15 6.72v-.43l.55-.54C18 4.49 18.63 3.82 18.64 3a.93.93 0 0 0-1-1 1.77 1.77 0 0 0-1.1.44L16.28 2a2.28 2.28 0 0 1 1.47-.53 1.46 1.46 0 0 1 1.59 1.51c0 1-.7 1.73-1.79 2.79l-.42.38h2.33v.58zM32.32 5.91a2.35 2.35 0 0 0 1.15.33c.9 0 1.18-.58 1.17-1 0-.73-.66-1-1.34-1h-.39v-.57h.39c.51 0 1.16-.26 1.16-.88 0-.42-.26-.78-.91-.78a1.92 1.92 0 0 0-1 .34l-.18-.51a2.48 2.48 0 0 1 1.36-.4c1 0 1.49.61 1.49 1.24a1.29 1.29 0 0 1-1 1.22 1.35 1.35 0 0 1 1.16 1.34c0 .83-.65 1.56-1.9 1.56a2.64 2.64 0 0 1-1.35-.35z"/></g></svg></svg>